inDegrees=yes
name=ik_S52_A11_T02
DataType=double
version=3
OpenSimVersion=4.3-2021-08-27-4bc7ad9
endheader
time	pelvis_tilt	pelvis_list	pelvis_rotation	pelvis_tx	pelvis_ty	pelvis_tz	hip_flexion_r	hip_adduction_r	hip_rotation_r	knee_angle_r	knee_angle_r_beta	ankle_angle_r	subtalar_angle_r	mtp_angle_r	hip_flexion_l	hip_adduction_l	hip_rotation_l	knee_angle_l	knee_angle_l_beta	ankle_angle_l	subtalar_angle_l	mtp_angle_l	lumbar_extension	lumbar_bending	lumbar_rotation	arm_flex_r	arm_add_r	arm_rot_r	elbow_flex_r	pro_sup_r	wrist_flex_r	wrist_dev_r	arm_flex_l	arm_add_l	arm_rot_l	elbow_flex_l	pro_sup_l	wrist_flex_l	wrist_dev_l
0	0	0	0	0	0.9399999999999999	0	0	0	0	0	0	0	0	0	0	0	0	0	0	0	0	0	0	0	0	0	0	0	0	89.99999999963507	0	0	0	0	0	0	89.99999999869995	0	0
0.02	-1.020902042930355	-0.2980972638247754	25.60258839587865	0	0.9399999999999999	0	1.857885877263337	-0.8720837801701816	-0.6250092971762974	2.898603136149685	0.05059016843444547	0	0	0	1.857885877263337	-0.8720837801701816	-0.6250092971762974	2.898603136149685	0.05059016843444547	0	0	0	-0.5003588690243082	-0.1581205057635975	11.12867883376441	9.205629407121179	-4.713386391715825	-2.9102179369367	5.771153460347701	122.6847003383637	0	0	6.606981939297621	-4.564725082806169	-4.11556902168988	8.4716333252263	120.9865479572912	0	0
0.04	-1.066113043930874	-0.3501565161876108	25.62011197556923	0	0.9399999999999999	0	1.958431496219067	-0.9206854136188449	-0.6616694500933396	2.999460576311778	0.05235046284040716	0	0	0	1.958431496219067	-0.9206854136188449	-0.6616694500933396	2.999460576311778	0.05235046284040716	0	0	0	-0.5641162546326651	-0.1850278724679492	11.11361250701056	9.338207266775989	-4.673652983788743	-2.872982713734348	5.75678247739952	122.6444482872904	0	0	6.73527691908659	-4.581035416836594	-4.070776770330768	8.483156913568607	120.9321954115048	0	0
0.06	-1.05277377175282	-0.331080848095937	25.70314652860178	0	0.9399999999999999	0	2.55745507805183	-1.184538008846652	-0.882412296164405	3.44049863767947	0.06004802913788618	0	0	0	2.55745507805183	-1.184538008846652	-0.882412296164405	3.44049863767947	0.06004802913788618	0	0	0	-0.5497877374859765	-0.1710596079069946	11.01863616979739	9.303264199212117	-4.677212449202397	-2.82179977511376	5.741923507939117	122.6041468290158	0	0	6.680594767606645	-4.570451614121715	-4.068494415555762	8.467372782859943	120.8903976957271	0	0
0.08	-1.076994647542565	-0.3584733380792308	25.81152008645918	0	0.9399999999999999	0	3.57012781558804	-1.619998912833182	-1.24375091734163	4.240528485862241	0.07401118410290591	0	0	0	3.57012781558804	-1.619998912833182	-1.24375091734163	4.240528485862241	0.07401118410290591	0	0	0	-0.5905743237454801	-0.1842476870489912	10.91655329661186	9.382332702073628	-4.67184213318331	-2.776856957457338	5.771981291101284	122.5856448619996	0	0	6.75136002533429	-4.570926965722472	-4.070080000236153	8.490759129839534	120.9204612076811	0	0
0.1	-1.073809240539834	-0.3601360083593293	25.85528316544903	0	0.9399999999999999	0	3.851918131406572	-1.736736875091058	-1.345901338153979	4.425431769339528	0.07723835519733301	0	0	0	3.851918131406572	-1.736736875091058	-1.345901338153979	4.425431769339528	0.07723835519733301	0	0	0	-0.5905714643136984	-0.186836571704133	10.88176443637192	9.374681275625308	-4.660085796991243	-2.767553422663249	5.726157247590493	122.584822000041	0	0	6.728984061656503	-4.602568019160994	-4.102321514533227	8.486438140304086	120.9403623946126	0	0
0.12	-1.061238732887734	-0.3654006245172388	25.95272488185861	0	0.9399999999999999	0	4.505364361942735	-2.034942115050479	-1.569782149201956	5.196879270954934	0.09070265410680611	0	0	0	4.505364361942735	-2.034942115050479	-1.569782149201956	5.196879270954934	0.09070265410680611	0	0	0	-0.5890380066339201	-0.1966169385027578	10.7957149962562	9.374350601284187	-4.637888421511625	-2.76470294822043	5.738230084748452	122.5728067831282	0	0	6.72235733941559	-4.612520343727632	-4.074179606786225	8.505378966919258	120.8834465146357	0	0
0.14	-1.06339093014954	-0.3650695669440618	26.00796106197258	0	0.9399999999999999	0	4.81963059757889	-2.159026343225503	-1.680836008902851	5.412315195726882	0.09446272032115542	0	0	0	4.81963059757889	-2.159026343225503	-1.680836008902851	5.412315195726882	0.09446272032115542	0	0	0	-0.5937604317670123	-0.1943865932687107	10.7417648405262	9.386123873250318	-4.625873877104925	-2.781959068004496	5.703801213446671	122.6208928408196	0	0	6.733682553759888	-4.611426334103348	-4.103900708997712	8.483114108433886	120.928150322422	0	0
0.16	-1.050431145507491	-0.3629705911443407	26.15471973833835	0	0.9399999999999999	0	6.414231275923578	-2.825543889661903	-2.231072846741072	6.927565303542891	0.1209088236937438	0	0	0	6.414231275923578	-2.825543889661903	-2.231072846741072	6.927565303542891	0.1209088236937438	0	0	0	-0.5886192564677859	-0.1983270993715817	10.60959729102312	9.357562409664618	-4.618678195818056	-2.801580846181621	5.722138062775569	122.6473195545874	0	0	6.728513905726371	-4.620308529288568	-4.073205049389308	8.469833337635635	120.9200874869536	0	0
0.18	-1.04083170767096	-0.3504364582352495	26.44526341487668	0	0.9399999999999999	0	7.932853341757845	-3.400457099269913	-2.736265233709208	8.299716907354469	0.1448573870167766	0	0	0	7.932853341757845	-3.400457099269913	-2.736265233709208	8.299716907354469	0.1448573870167766	0	0	0	-0.5899615956602928	-0.1866123639249006	10.34049729340799	9.339052720738517	-4.647782923283552	-2.835276751669589	5.717759842361554	122.6473509891353	0	0	6.713452696666532	-4.604833503371357	-4.050417351782899	8.462913436711373	120.8949287746435	0	0
0.2	-1.035186659993361	-0.3499620389122086	26.50433813457209	0	0.9399999999999999	0	8.2953282679757	-3.535170769055465	-2.855329183732291	8.625174652101084	0.1505376962387203	0	0	0	8.2953282679757	-3.535170769055465	-2.855329183732291	8.625174652101084	0.1505376962387203	0	0	0	-0.5881489707363978	-0.186942401498403	10.27952313160284	9.33219028233718	-4.640808029454261	-2.829878114521436	5.727481243154196	122.6479052115595	0	0	6.708577293119338	-4.607715592189471	-4.073226681591228	8.473990463494191	120.8896472170919	0	0
0.22	-1.04935814472474	-0.3729640444335209	26.52943448098788	0	0.9399999999999999	0	8.522064225168414	-3.61436911459918	-2.928981111555902	8.813243383558991	0.1538201148227099	0	0	0	8.522064225168414	-3.61436911459918	-2.928981111555902	8.813243383558991	0.1538201148227099	0	0	0	-0.6137673746068197	-0.1995929829127266	10.24475868150225	9.390139094024557	-4.60544409213849	-2.824481599293875	5.691578738878007	122.5110187723611	0	0	6.751433109511298	-4.621110459787432	-4.050454862946967	8.497059800996878	120.8353821020906	0	0
0.24	-1.082401763725987	-0.4127471706285266	26.54522998372351	0	0.9399999999999999	0	8.620698392213294	-3.649622777728883	-2.96092853692261	8.899896295978566	0.1553324934508737	0	0	0	8.620698392213294	-3.649622777728883	-2.96092853692261	8.899896295978566	0.1553324934508737	0	0	0	-0.661834911250302	-0.220132492683553	10.23249541926755	9.488330241931619	-4.586379129039038	-2.859807412416947	5.686253957052155	122.5413014844727	0	0	6.869411840045108	-4.645201365912196	-4.063476092958647	8.468916936572525	120.9071469894634	0	0
